<svg xmlns="http://www.w3.org/2000/svg" id="_图层_1" data-name="图层 1" viewBox="0 0 26.22 27.75"><defs><style>.cls-1,.cls-3{fill:#f3ffff;stroke-width:0}.cls-3{fill:#f6f}</style></defs><path d="M12.81 17.59q-.45 0-.87-.18a2.16 2.16 0 0 1-1.11-2.81c.15-.35.3-.71.45-1.07l.06-.14h-.35s-.1.26-.13.32l-.08.18c-.35.77-1.12 1.26-1.96 1.26q-.45 0-.87-.18c-.59-.26-1.03-.77-1.2-1.39l-.56.02c-1.14 0-2.09-.9-2.14-2.04-.03-.57.17-1.12.55-1.55s.91-.68 1.49-.71l1.38-.06.61-.02.21-.51a2.15 2.15 0 0 1-1.41-1.9c-.03-.57.17-1.12.55-1.55s.91-.68 1.48-.71l1.08-.04.21-.53c.29-.72.58-1.45.86-2.17.32-.82 1.12-1.38 2.01-1.38a2.13 2.13 0 0 1 1.96 1.27c.23.52.25 1.11.04 1.64-.12.3-.38.97-.38.97h.33l.02-.07c.32-.82 1.12-1.38 2-1.38.26 0 .52.05.77.14.56.22 1 .65 1.22 1.2l.89-.02h.36c1.17.01 2.13.97 2.13 2.14s-.95 2.14-2.12 2.15c-.56 0-1.12.02-1.67.04l-.66.02-.17.43c1.01.17 1.79 1.05 1.8 2.11 0 1.17-.95 2.14-2.12 2.15-.32 0-1.43.03-1.43.03l-.24.59c-.3.72-.59 1.44-.9 2.15 0 .03-.03.08-.06.14l-.08.19c-.35.77-1.12 1.26-1.96 1.26Zm0-8.55h.34l.14-.37h-.33z" style="stroke-width:0;fill:#11d258"/><path d="M13.08.85c.21 0 .41.04.62.11.89.34 1.33 1.34.99 2.23-.2.52-.42 1.05-.62 1.57.42-.01.84-.02 1.26-.04.04-.11.09-.22.13-.32a1.717 1.717 0 0 1 2.23-.98c.56.22.94.69 1.06 1.24.4 0 .81-.02 1.21-.03h.35c.94 0 1.71.77 1.71 1.72 0 .94-.76 1.72-1.7 1.73-.87.01-1.75.04-2.62.06-.16.42-.33.83-.49 1.25h.28c.94 0 1.71.77 1.71 1.72 0 .94-.76 1.72-1.7 1.73-.57 0-1.14.03-1.71.04-.41 1-.82 2-1.25 2.98-.02.05-.03.09-.05.14l-.08.18a1.71 1.71 0 0 1-2.26.86 1.734 1.734 0 0 1-.89-2.26c.26-.6.51-1.22.77-1.83-.43.01-.86.04-1.29.05-.06.13-.11.27-.17.4-.02.05-.04.1-.06.14l-.08.18a1.71 1.71 0 0 1-2.26.86c-.6-.26-.96-.83-1.01-1.44l-.83.03h-.09a1.722 1.722 0 0 1-.09-3.44c.75-.04 1.5-.06 2.25-.09.17-.41.34-.81.51-1.22-.84-.07-1.53-.75-1.57-1.62-.05-.95.68-1.76 1.63-1.81l1.35-.06c.39-.99.79-1.98 1.17-2.97.26-.68.92-1.1 1.61-1.1m-.91 8.63 1.28-.03c.17-.41.32-.82.49-1.23-.42.01-.84.04-1.26.05-.17.41-.34.81-.51 1.21M13.08 0c-1.06 0-2.02.66-2.4 1.65-.27.71-.56 1.42-.84 2.13l-.12.31h-.05c-.25 0-.51.02-.76.03-.69.03-1.32.34-1.78.85s-.7 1.17-.66 1.86c.04.82.47 1.54 1.11 1.98h-.1l-1.4.06c-.69.03-1.32.34-1.78.85s-.7 1.17-.66 1.86a2.57 2.57 0 0 0 2.57 2.44h.27c.25.59.72 1.07 1.32 1.34.33.15.68.22 1.04.22.51 0 1.01-.15 1.42-.43a2.585 2.585 0 0 0 2.56 2.88c1.01 0 1.93-.59 2.35-1.51l.08-.18c.03-.06.05-.12.07-.18.31-.72.61-1.45.91-2.18l.11-.27h.18c.32 0 .65-.02.97-.02a2.57 2.57 0 0 0 2.54-2.58c0-.89-.46-1.67-1.15-2.13l1.43-.03a2.57 2.57 0 0 0 2.54-2.58 2.58 2.58 0 0 0-2.56-2.57h-.4c-.17 0-.37 0-.58.01a2.56 2.56 0 0 0-2.26-1.33c-.51 0-1 .16-1.42.43.05-.46-.01-.92-.2-1.35C15.15.93 14.64.45 14 .2c-.3-.14-.61-.2-.92-.2" class="cls-1"/><path d="M2.79 27.25c-.25 0-.5-.02-.73-.07-.68-.14-1.23-.63-1.44-1.29s-.05-1.38.42-1.89c1-1.07 1.93-2.21 2.77-3.42-.44.03-.89.06-1.34.07-1.11 0-1.94-.81-1.97-1.83-.02-.51.16-1 .51-1.37s.82-.59 1.33-.61c1.56-.06 3.14-.22 4.68-.47.1-.02.21-.03.31-.03.51 0 1.01.21 1.37.58.43.45.62 1.08.5 1.7-.16.8-.51 1.43-.85 2-.48.79-.99 1.58-1.53 2.33.2 0 .4.02.6.04.35.03 1.27.12 1.97.87.73.76.7 1.97-.07 2.7-.36.34-.82.52-1.32.52-.36 0-.72-.1-1.02-.3-.26-.02-.48-.03-.7-.03-.6 0-1.2.07-1.78.21l-.19.05c-.41.1-.92.23-1.5.23Z" class="cls-3"/><path d="M7.32 16.85c.38 0 .74.15 1.01.43.32.33.46.8.37 1.25-.14.72-.47 1.3-.79 1.84-.64 1.06-1.33 2.09-2.08 3.09h.44c.36 0 .73.02 1.09.05.33.03 1.08.11 1.66.71.54.56.51 1.45-.05 1.99-.27.26-.62.39-.97.39-.3 0-.6-.09-.85-.28h-.07c-.27-.03-.54-.04-.81-.04-.64 0-1.27.07-1.9.22l-.2.05c-.4.1-.86.21-1.38.21-.2 0-.42-.02-.63-.06-.5-.1-.91-.46-1.06-.95-.16-.49-.04-1.02.31-1.39 1.26-1.35 2.4-2.8 3.41-4.35-.79.08-1.57.13-2.36.16h-.08c-.76 0-1.35-.6-1.38-1.35-.03-.78.58-1.43 1.35-1.46 1.58-.06 3.18-.22 4.74-.48.08-.01.15-.02.23-.02m0-1q-.195 0-.39.03c-1.52.25-3.07.41-4.62.47-.64.02-1.24.3-1.67.77-.44.46-.66 1.08-.64 1.72.05 1.3 1.09 2.31 2.38 2.31h.13c.09 0 .18 0 .28-.01-.66.88-1.37 1.72-2.11 2.52-.6.64-.8 1.55-.53 2.38s.96 1.45 1.82 1.62c.27.05.55.08.83.08.64 0 1.21-.14 1.62-.24l.19-.05c.54-.13 1.1-.19 1.66-.19.18 0 .36 0 .54.02.36.2.77.31 1.18.31.62 0 1.21-.23 1.66-.66.96-.92 1-2.44.09-3.4-.69-.73-1.53-.92-2.03-.99q.555-.81 1.05-1.65c.35-.59.74-1.28.92-2.16.16-.78-.08-1.58-.63-2.15-.45-.47-1.08-.73-1.73-.73" class="cls-1"/><path d="M18.55 26.89c-.27 0-.54-.07-.78-.19-.41-.21-.71-.57-.86-1-.14-.44-.1-.91.11-1.32.47-.92.97-1.83 1.48-2.74l-1.97-2.07c-.66-.69-.63-1.78.06-2.44.32-.31.75-.48 1.19-.48.47 0 .92.19 1.25.53l1.27 1.33c.4-.68.8-1.35 1.21-2.01a1.72 1.72 0 0 1 2.38-.53c.8.51 1.04 1.58.54 2.38-.6.94-1.17 1.91-1.66 2.76l2.49 2.61c.66.69.63 1.78-.06 2.44-.32.31-.75.48-1.19.48-.48 0-.92-.19-1.25-.53l-1.75-1.83c-.31.56-.62 1.12-.91 1.69-.3.58-.88.94-1.54.94Z" class="cls-3"/><path d="M22.96 16.21a1.228 1.228 0 0 1 1.03 1.88c-.64 1.01-1.25 2.05-1.86 3.1l2.75 2.88c.47.49.45 1.26-.04 1.73-.24.23-.54.34-.84.34-.32 0-.65-.13-.89-.38l-2.22-2.33c-.42.77-.85 1.53-1.24 2.3-.22.42-.65.67-1.09.67-.19 0-.38-.04-.56-.13-.6-.31-.84-1.04-.53-1.65.52-1.03 1.09-2.04 1.65-3.05l-2.23-2.33a1.22 1.22 0 0 1 .04-1.73c.24-.23.54-.34.84-.34.32 0 .64.13.89.38l1.73 1.81c.51-.86 1.01-1.73 1.54-2.57.23-.37.63-.57 1.03-.57m0-1c-.77 0-1.47.39-1.88 1.04-.3.48-.6.97-.89 1.46l-.81-.85a2.224 2.224 0 0 0-3.14-.08c-.89.85-.92 2.26-.08 3.14l1.72 1.8c-.47.84-.89 1.63-1.31 2.44a2.23 2.23 0 0 0 .96 3c.31.16.66.24 1.01.24.84 0 1.6-.46 1.98-1.21l.57-1.08 1.28 1.34a2.224 2.224 0 0 0 3.14.08c.89-.85.92-2.26.08-3.14l-2.23-2.33c.46-.79.95-1.61 1.46-2.42.32-.5.42-1.1.29-1.68a2.22 2.22 0 0 0-2.17-1.73Z" class="cls-1"/></svg>