<?xml version="1.0" encoding="UTF-8"?>
<svg id="_图层_1" data-name="图层 1" xmlns="http://www.w3.org/2000/svg" viewBox="0 0 26.22 27.75">
  <defs>
    <style>
      .cls-1 {
        fill: #f3ffff;
      }

      .cls-1, .cls-2, .cls-3 {
        stroke-width: 0px;
      }

      .cls-2 {
        fill: #11d258;
      }

      .cls-3 {
        fill: #f6f;
      }
    </style>
  </defs>
  <g>
    <path class="cls-2" d="m12.81,17.59c-.3,0-.59-.06-.87-.18-1.07-.47-1.57-1.74-1.11-2.81.15-.35.3-.71.45-1.07l.06-.14h-.35s-.1.26-.13.32l-.08.18c-.35.77-1.12,1.26-1.96,1.26-.3,0-.59-.06-.87-.18-.59-.26-1.03-.77-1.2-1.39l-.56.02c-1.14,0-2.09-.9-2.14-2.04-.03-.57.17-1.12.55-1.55.38-.43.91-.68,1.49-.71.46-.02.92-.04,1.38-.06l.61-.02.21-.51c-.79-.29-1.37-1.03-1.41-1.9-.03-.57.17-1.12.55-1.55.38-.43.91-.68,1.48-.71l1.08-.04.21-.53c.29-.72.58-1.45.86-2.17.32-.82,1.12-1.38,2.01-1.38.26,0,.52.05.77.14.54.21.96.61,1.19,1.13.23.52.25,1.11.04,1.64-.12.3-.38.97-.38.97h.33s.02-.07.02-.07c.32-.82,1.12-1.38,2-1.38.26,0,.52.05.77.14.56.22,1,.65,1.22,1.2l.89-.02s.07,0,.12,0h.24c1.17.01,2.13.97,2.13,2.14,0,1.17-.95,2.14-2.12,2.15-.56,0-1.12.02-1.67.04l-.66.02-.17.43c1.01.17,1.79,1.05,1.8,2.11,0,1.17-.95,2.14-2.12,2.15-.32,0-1.43.03-1.43.03l-.24.59c-.3.72-.59,1.44-.9,2.15,0,.03-.03.08-.06.14l-.08.19c-.35.77-1.12,1.26-1.96,1.26Zm0-8.55h.34s.14-.37.14-.37h-.33s-.15.37-.15.37Z"/>
    <path class="cls-1" d="m13.08.85c.21,0,.41.04.62.11.89.34,1.33,1.34.99,2.23-.2.52-.42,1.05-.62,1.57.42-.01.84-.02,1.26-.04.04-.11.09-.22.13-.32.26-.68.91-1.1,1.61-1.1.21,0,.42.04.62.12.56.22.94.69,1.06,1.24.4,0,.81-.02,1.21-.03.04,0,.07,0,.11,0,.01,0,.02,0,.04,0h.2c.94,0,1.71.77,1.71,1.72,0,.94-.76,1.72-1.7,1.73-.87.01-1.75.04-2.62.06-.16.42-.33.83-.49,1.25.02,0,.05,0,.08,0h.2c.94,0,1.71.77,1.71,1.72,0,.94-.76,1.72-1.7,1.73-.57,0-1.14.03-1.71.04-.41,1-.82,2-1.25,2.98-.02.05-.03.09-.05.14l-.08.18c-.29.64-.91,1.01-1.57,1.01-.23,0-.47-.05-.69-.15-.86-.38-1.26-1.39-.89-2.26.26-.6.51-1.22.77-1.83-.43.01-.86.04-1.29.05-.06.13-.11.27-.17.4-.02.05-.04.1-.06.14l-.08.18c-.29.64-.91,1.01-1.57,1.01-.23,0-.47-.05-.69-.15-.6-.26-.96-.83-1.01-1.44-.27.01-.55.02-.83.03-.03,0-.06,0-.09,0-.91,0-1.67-.71-1.72-1.63-.05-.95.68-1.76,1.63-1.81.75-.04,1.5-.06,2.25-.09.17-.41.34-.81.51-1.22-.84-.07-1.53-.75-1.57-1.62-.05-.95.68-1.76,1.63-1.81.45-.02.9-.04,1.35-.06.39-.99.79-1.98,1.17-2.97.26-.68.92-1.1,1.61-1.1m-.91,8.63c.43-.01.85-.02,1.28-.03.17-.41.32-.82.49-1.23-.42.01-.84.04-1.26.05-.17.41-.34.81-.51,1.21M13.08,0S13.08,0,13.08,0c-1.06,0-2.02.66-2.4,1.65-.27.71-.56,1.42-.84,2.13l-.12.31s-.03,0-.05,0c-.25,0-.51.02-.76.03-.69.03-1.32.34-1.78.85-.46.51-.7,1.17-.66,1.86.04.82.47,1.54,1.11,1.98h-.1c-.47.02-.93.04-1.4.06-.69.03-1.32.34-1.78.85-.46.51-.7,1.17-.66,1.86.07,1.37,1.2,2.44,2.57,2.44.05,0,.09,0,.14,0,.04,0,.09,0,.13,0,.25.59.72,1.07,1.32,1.34.33.15.68.22,1.04.22.51,0,1.01-.15,1.42-.43-.13,1.09.46,2.19,1.52,2.66.33.15.68.22,1.04.22,1.01,0,1.93-.59,2.35-1.51l.08-.18c.03-.06.05-.12.07-.18.31-.72.61-1.45.91-2.18l.11-.27c.06,0,.12,0,.18,0,.32,0,.65-.02.97-.02,1.41-.02,2.55-1.17,2.54-2.58,0-.89-.46-1.67-1.15-2.13.48-.01.96-.02,1.43-.03,1.41-.02,2.55-1.17,2.54-2.58,0-1.41-1.15-2.56-2.56-2.57h-.2s-.02,0-.03,0c-.08,0-.13,0-.17,0-.17,0-.37,0-.58.01-.29-.53-.76-.94-1.33-1.16-.3-.11-.61-.17-.93-.17-.51,0-1,.16-1.42.43.05-.46-.01-.92-.2-1.35-.28-.63-.79-1.11-1.43-1.36C13.7.06,13.39,0,13.08,0h0Z"/>
  </g>
  <g>
    <path class="cls-3" d="m2.79,27.25c-.25,0-.5-.02-.73-.07-.68-.14-1.23-.63-1.44-1.29-.21-.66-.05-1.38.42-1.89,1-1.07,1.93-2.21,2.77-3.42-.44.03-.89.06-1.34.07h0c-1.11,0-1.94-.81-1.97-1.83-.02-.51.16-1,.51-1.37.35-.37.82-.59,1.33-.61,1.56-.06,3.14-.22,4.68-.47.1-.02.21-.03.31-.03.51,0,1.01.21,1.37.58.43.45.62,1.08.5,1.7-.16.8-.51,1.43-.85,2-.48.79-.99,1.58-1.53,2.33.2,0,.4.02.6.04.35.03,1.27.12,1.97.87.73.76.7,1.97-.07,2.7-.36.34-.82.52-1.32.52-.36,0-.72-.1-1.02-.3-.26-.02-.48-.03-.7-.03-.6,0-1.2.07-1.78.21l-.19.05c-.41.1-.92.23-1.5.23Z"/>
    <path class="cls-1" d="m7.32,16.85c.38,0,.74.15,1.01.43.32.33.46.8.37,1.25-.14.72-.47,1.3-.79,1.84-.64,1.06-1.33,2.09-2.08,3.09.15,0,.29,0,.44,0,.36,0,.73.02,1.09.05.33.03,1.08.11,1.66.71.54.56.51,1.45-.05,1.99-.27.26-.62.39-.97.39-.3,0-.6-.09-.85-.28-.02,0-.05,0-.07,0-.27-.03-.54-.04-.81-.04-.64,0-1.27.07-1.9.22l-.2.05c-.4.1-.86.21-1.38.21-.2,0-.42-.02-.63-.06-.5-.1-.91-.46-1.06-.95-.16-.49-.04-1.02.31-1.39,1.26-1.35,2.4-2.8,3.41-4.35-.79.08-1.57.13-2.36.16-.03,0-.05,0-.08,0-.76,0-1.35-.6-1.38-1.35-.03-.78.58-1.43,1.35-1.46,1.58-.06,3.18-.22,4.74-.48.08-.01.15-.02.23-.02m-.34,9.31s0,0,0,0c0,0,0,0,0,0m.34-10.31c-.13,0-.26.01-.39.03-1.52.25-3.07.41-4.62.47-.64.02-1.24.3-1.67.77C.2,17.59-.02,18.21,0,18.85c.05,1.3,1.09,2.31,2.38,2.31.04,0,.09,0,.13,0,.09,0,.18,0,.28-.01-.66.88-1.37,1.72-2.11,2.52-.6.64-.8,1.55-.53,2.38.27.83.96,1.45,1.82,1.62.27.05.55.08.83.08.64,0,1.21-.14,1.62-.24l.19-.05c.54-.13,1.1-.19,1.66-.19.18,0,.36,0,.54.02.36.2.77.31,1.18.31.62,0,1.21-.23,1.66-.66.96-.92,1-2.44.09-3.4-.69-.73-1.53-.92-2.03-.99.37-.54.72-1.09,1.05-1.65.35-.59.74-1.28.92-2.16.16-.78-.08-1.58-.63-2.15-.45-.47-1.08-.73-1.73-.73h0Z"/>
  </g>
  <g>
    <path class="cls-3" d="m18.55,26.89c-.27,0-.54-.07-.78-.19-.41-.21-.71-.57-.86-1-.14-.44-.1-.91.11-1.32.47-.92.97-1.83,1.48-2.74l-1.97-2.07c-.66-.69-.63-1.78.06-2.44.32-.31.75-.48,1.19-.48.47,0,.92.19,1.25.53l1.27,1.33c.4-.68.8-1.35,1.21-2.01.32-.5.86-.8,1.46-.8.33,0,.64.09.92.27.8.51,1.04,1.58.54,2.38-.6.94-1.17,1.91-1.66,2.76l2.49,2.61c.66.69.63,1.78-.06,2.44-.32.31-.75.48-1.19.48-.48,0-.92-.19-1.25-.53l-1.75-1.83c-.31.56-.62,1.12-.91,1.69-.3.58-.88.94-1.54.94Z"/>
    <path class="cls-1" d="m22.96,16.21c.22,0,.45.06.65.19.57.36.74,1.12.38,1.69-.64,1.01-1.25,2.05-1.86,3.1l2.75,2.88c.47.49.45,1.26-.04,1.73-.24.23-.54.34-.84.34-.32,0-.65-.13-.89-.38l-2.22-2.33c-.42.77-.85,1.53-1.24,2.3-.22.42-.65.67-1.09.67-.19,0-.38-.04-.56-.13-.6-.31-.84-1.04-.53-1.65.52-1.03,1.09-2.04,1.65-3.05l-2.23-2.33c-.47-.49-.45-1.26.04-1.73.24-.23.54-.34.84-.34.32,0,.64.13.89.38l1.73,1.81c.51-.86,1.01-1.73,1.54-2.57.23-.37.63-.57,1.03-.57m0-1c-.77,0-1.47.39-1.88,1.04-.3.48-.6.97-.89,1.46l-.81-.85c-.42-.44-1.01-.69-1.61-.69-.57,0-1.12.22-1.53.61-.89.85-.92,2.26-.08,3.14l1.72,1.8c-.47.84-.89,1.63-1.31,2.44-.27.53-.32,1.13-.14,1.7.18.57.58,1.03,1.1,1.3.31.16.66.24,1.01.24.84,0,1.6-.46,1.98-1.21.19-.36.38-.72.57-1.08l1.28,1.34c.42.44,1,.69,1.61.69.57,0,1.12-.22,1.53-.61.89-.85.92-2.26.08-3.14l-2.23-2.33c.46-.79.95-1.61,1.46-2.42.32-.5.42-1.1.29-1.68-.13-.58-.48-1.07-.98-1.39-.36-.23-.77-.34-1.19-.34h0Z"/>
  </g>
</svg>